<?xml version="1.0" encoding="utf-8"?>
<!-- Generator: Adobe Illustrator 23.0.6, SVG Export Plug-In . SVG Version: 6.00 Build 0)  -->
<svg version="1.1" id="Layer_1" xmlns="http://www.w3.org/2000/svg" xmlns:xlink="http://www.w3.org/1999/xlink" x="0px" y="0px"
	 viewBox="0 0 25 25" style="enable-background:new 0 0 25 25;" xml:space="preserve">
<style type="text/css">
	.st0{fill:#BE1B1B;}
</style>
<title>noun_99709_cc</title>
<desc>Created using Figma</desc>
<path class="st0" d="M12.5,0C5.6,0,0,5.6,0,12.5C0,19.4,5.6,25,12.5,25C19.4,25,25,19.4,25,12.5C25,5.6,19.4,0,12.5,0z M19.4,7.9
	l-6.9,4.7L5.6,7.9H19.4z M5,8.6l4.8,3.2L5,16.6V8.6z M5.6,17.2l4.9-4.9l1.7,1.2c0.1,0,0.2,0.1,0.2,0.1c0.1,0,0.2,0,0.2-0.1l1.7-1.1
	l5,4.9H5.6z M15.2,11.9L20,8.6l0,8L15.2,11.9z"/>
</svg>
