<?xml version="1.0" encoding="utf-8"?>
<!-- Generator: Adobe Illustrator 23.0.6, SVG Export Plug-In . SVG Version: 6.00 Build 0)  -->
<svg version="1.1" id="Layer_1" xmlns="http://www.w3.org/2000/svg" xmlns:xlink="http://www.w3.org/1999/xlink" x="0px" y="0px"
	 viewBox="0 0 25 25" style="enable-background:new 0 0 25 25;" xml:space="preserve">
<style type="text/css">
	.st0{fill:#BE1B1B;}
</style>
<title>noun_376853_cc</title>
<desc>Created using Figma</desc>
<g>
	<path class="st0" d="M10,7c0.2-0.5,0.4-0.9,0.6-1.2C8.6,6.3,7,7.7,6.2,9.5h3.1C9.5,8.6,9.7,7.7,10,7z"/>
	<path class="st0" d="M21.3,3.7C19,1.3,15.8,0,12.5,0S6,1.3,3.7,3.7C1.3,6,0,9.2,0,12.5s1.3,6.5,3.7,8.8C6,23.7,9.2,25,12.5,25
		s6.5-1.3,8.8-3.7s3.7-5.5,3.7-8.8S23.7,6,21.3,3.7z M12.5,20.5c-4.4,0-8-3.6-8-8c0-4.4,3.6-8,8-8c4.4,0,8,3.6,8,8
		C20.5,16.9,16.9,20.5,12.5,20.5z"/>
	<path class="st0" d="M10.1,12.5c0,0.7,0.1,1.4,0.1,2h4.6c0.1-0.6,0.1-1.3,0.1-2c0-0.7-0.1-1.4-0.1-2h-4.6
		C10.1,11.1,10.1,11.8,10.1,12.5z"/>
	<path class="st0" d="M14.7,9.5c-0.1-0.8-0.3-1.5-0.6-2.1c-0.2-0.6-0.5-1.1-0.8-1.4c-0.3-0.3-0.5-0.4-0.8-0.4S12,5.6,11.7,5.9
		c-0.3,0.3-0.6,0.8-0.8,1.4c-0.2,0.6-0.4,1.3-0.6,2.1H14.7z"/>
	<path class="st0" d="M9.3,15.5H6.2c0.9,1.8,2.5,3.2,4.4,3.7c-0.2-0.4-0.5-0.8-0.6-1.2C9.7,17.3,9.5,16.4,9.3,15.5z"/>
	<path class="st0" d="M9.1,12.5c0-0.7,0-1.4,0.1-2H5.8c-0.2,0.6-0.3,1.3-0.3,2c0,0.7,0.1,1.4,0.3,2h3.4C9.1,13.9,9.1,13.2,9.1,12.5z
		"/>
	<path class="st0" d="M14.4,5.8C14.6,6.1,14.9,6.5,15,7c0.3,0.7,0.5,1.6,0.7,2.5h3.1C18,7.7,16.4,6.3,14.4,5.8z"/>
	<path class="st0" d="M15.9,12.5c0,0.7,0,1.4-0.1,2h3.4c0.2-0.6,0.3-1.3,0.3-2c0-0.7-0.1-1.4-0.3-2h-3.4
		C15.9,11.1,15.9,11.8,15.9,12.5z"/>
	<path class="st0" d="M10.3,15.5c0.1,0.8,0.3,1.5,0.6,2.1c0.2,0.6,0.5,1.1,0.8,1.4c0.3,0.3,0.5,0.4,0.8,0.4s0.5-0.1,0.8-0.4
		c0.3-0.3,0.6-0.8,0.8-1.4c0.2-0.6,0.4-1.3,0.6-2.1H10.3z"/>
	<path class="st0" d="M15,18c-0.2,0.5-0.4,0.9-0.6,1.2c2-0.6,3.6-1.9,4.4-3.7h-3.1C15.5,16.4,15.3,17.3,15,18z"/>
</g>
</svg>
