<?xml version="1.0" encoding="utf-8"?>
<!-- Generator: Adobe Illustrator 23.0.6, SVG Export Plug-In . SVG Version: 6.00 Build 0)  -->
<svg version="1.1" id="Layer_1" xmlns="http://www.w3.org/2000/svg" xmlns:xlink="http://www.w3.org/1999/xlink" x="0px" y="0px"
	 viewBox="0 0 25 25" style="enable-background:new 0 0 25 25;" xml:space="preserve">
<style type="text/css">
	.st0{fill:#BE1B1B;}
</style>
<title>noun_555068_cc</title>
<desc>Created using Figma</desc>
<path class="st0" d="M12.5,0C5.6,0,0,5.6,0,12.5C0,19.4,5.6,25,12.5,25C19.4,25,25,19.4,25,12.5C25,5.6,19.4,0,12.5,0z M14.8,18.7
	c-4.7-0.3-8.4-4.1-8.6-8.9c0-1.7,1.1-3.1,2.6-3.6c1.1,0.8,1.9,2.1,2.1,3.6c-0.5,0.7-1.2,1.2-2.1,1.6c0.9,2,2.6,3.7,4.7,4.6
	c0.3-0.8,0.9-1.5,1.6-2l0,0c1.5,0.1,2.8,0.9,3.6,2.1C18.1,17.7,16.6,18.7,14.8,18.7z"/>
</svg>
