<?xml version="1.0" encoding="utf-8"?>
<!-- Generator: Adobe Illustrator 23.0.6, SVG Export Plug-In . SVG Version: 6.00 Build 0)  -->
<svg version="1.1" id="Layer_1" xmlns="http://www.w3.org/2000/svg" xmlns:xlink="http://www.w3.org/1999/xlink" x="0px" y="0px"
	 viewBox="0 0 25 25" style="enable-background:new 0 0 25 25;" xml:space="preserve">
<style type="text/css">
	.st0{fill:#BE1B1B;}
</style>
<g>
	<circle class="st0" cx="12.5" cy="11" r="1"/>
	<path class="st0" d="M21.3,3.7C19,1.3,15.8,0,12.5,0S6,1.3,3.7,3.7C1.3,6,0,9.2,0,12.5s1.3,6.5,3.7,8.8C6,23.7,9.2,25,12.5,25
		s6.5-1.3,8.8-3.7s3.7-5.5,3.7-8.8S23.7,6,21.3,3.7z M12.9,19.4l-0.4,0.4l-0.4-0.4c-1-1-4.6-4.5-4.6-8.4c0-2.8,2.2-5,5-5s5,2.2,5,5
		C17.5,14.8,13.9,18.4,12.9,19.4z"/>
	<path class="st0" d="M12.5,7c-2.2,0-4,1.8-4,4c0,2.9,2.8,6,4,7.2c1.2-1.2,4-4.3,4-7.2C16.5,8.8,14.7,7,12.5,7z M12.5,13
		c-1.1,0-2-0.9-2-2c0-1.1,0.9-2,2-2s2,0.9,2,2C14.5,12.1,13.6,13,12.5,13z"/>
</g>
</svg>
